<?xml version="1.0" encoding="UTF-8"?><svg xmlns="http://www.w3.org/2000/svg" xmlns:xlink="http://www.w3.org/1999/xlink" fill-opacity="1" color-rendering="auto" color-interpolation="auto" text-rendering="auto" stroke="black" stroke-linecap="square" width="1110" stroke-miterlimit="10" shape-rendering="auto" stroke-opacity="1" fill="black" stroke-dasharray="none" font-weight="normal" stroke-width="1" height="1545" font-family="'Dialog'" font-style="normal" stroke-linejoin="miter" font-size="12px" stroke-dashoffset="0" image-rendering="auto">
  <!--Generated by ySVG 2.5-->
  <defs id="genericDefs"/>
  <g>
    <defs id="defs1">
      <clipPath clipPathUnits="userSpaceOnUse" id="clipPath1">
        <path d="M0 0 L1110 0 L1110 1545 L0 1545 L0 0 Z"/>
      </clipPath>
      <clipPath clipPathUnits="userSpaceOnUse" id="clipPath2">
        <path d="M-15 -15 L1095 -15 L1095 1530 L-15 1530 L-15 -15 Z"/>
      </clipPath>
      <clipPath clipPathUnits="userSpaceOnUse" id="clipPath3">
        <path d="M-15 884.3111 L-15 1530 L1095 1530 L1095 884.3111 Z"/>
      </clipPath>
      <clipPath clipPathUnits="userSpaceOnUse" id="clipPath4">
        <path d="M-15 -15 L-15 884.3111 L1095 884.3111 L1095 -15 Z"/>
      </clipPath>
      <clipPath clipPathUnits="userSpaceOnUse" id="clipPath5">
        <path d="M-15 980.4427 L-15 1530 L1095 1530 L1095 980.4427 Z"/>
      </clipPath>
      <clipPath clipPathUnits="userSpaceOnUse" id="clipPath6">
        <path d="M-15 -15 L-15 980.4427 L1095 980.4427 L1095 -15 Z"/>
      </clipPath>
      <clipPath clipPathUnits="userSpaceOnUse" id="clipPath7">
        <path d="M656.6712 -469.43 L656.6712 640.57 L-888.3288 640.57 L-888.3288 -469.43 L656.6712 -469.43 Z"/>
      </clipPath>
      <clipPath clipPathUnits="userSpaceOnUse" id="clipPath8">
        <path d="M0 -10 L-12 -10 L-12 10 L0 10 Z"/>
      </clipPath>
      <clipPath clipPathUnits="userSpaceOnUse" id="clipPath9">
        <path d="M-419.4047 -875.2272 L690.5953 -875.2272 L690.5953 669.7728 L-419.4047 669.7728 L-419.4047 -875.2272 Z"/>
      </clipPath>
      <clipPath clipPathUnits="userSpaceOnUse" id="clipPath10">
        <path d="M918.9048 -628.9421 L918.9048 481.0579 L-626.0952 481.0579 L-626.0952 -628.9421 L918.9048 -628.9421 Z"/>
      </clipPath>
    </defs>
    <g fill="white" text-rendering="geometricPrecision" shape-rendering="geometricPrecision" transform="translate(15,15)" stroke="white">
      <rect x="-15" width="1110" height="1545" y="-15" clip-path="url(#clipPath2)" stroke="none"/>
    </g>
    <g text-rendering="geometricPrecision" stroke-miterlimit="1.45" shape-rendering="geometricPrecision" font-family="sans-serif" transform="matrix(1,0,0,1,15,15)" stroke-linecap="butt">
      <text x="9.9727" xml:space="preserve" y="1504.1543" clip-path="url(#clipPath2)" stroke="none">+</text>
      <text x="9.9727" xml:space="preserve" y="19.1543" clip-path="url(#clipPath2)" stroke="none">+</text>
      <text x="1059.9727" xml:space="preserve" y="1504.1543" clip-path="url(#clipPath2)" stroke="none">+</text>
      <text x="1059.9727" xml:space="preserve" y="19.1543" clip-path="url(#clipPath2)" stroke="none">+</text>
    </g>
    <g fill="rgb(201,201,201)" text-rendering="geometricPrecision" shape-rendering="geometricPrecision" transform="matrix(1,0,0,1,15,15)" stroke="rgb(201,201,201)">
      <rect x="878.2899" width="160.3959" height="152.3198" y="71.9731" clip-path="url(#clipPath2)" stroke="none"/>
    </g>
    <g stroke-linecap="butt" font-size="50px" transform="matrix(1,0,0,1,15,15)" text-rendering="geometricPrecision" font-family="'Liberation Sans'" shape-rendering="geometricPrecision" font-style="italic" font-weight="bold" stroke-miterlimit="1.45">
      <text x="940.4337" xml:space="preserve" y="166.2848" clip-path="url(#clipPath2)" stroke="none">A</text>
    </g>
    <g transform="matrix(1,0,0,1,15,15)" fill-opacity="0.902" fill="rgb(255,255,255)" text-rendering="geometricPrecision" shape-rendering="geometricPrecision" stroke="rgb(255,255,255)" stroke-opacity="0.902">
      <rect x="226.3776" width="632.6819" height="30" y="71.9731" clip-path="url(#clipPath2)" stroke="none"/>
    </g>
    <g text-rendering="geometricPrecision" stroke-miterlimit="1.45" stroke-width="7" shape-rendering="geometricPrecision" transform="matrix(1,0,0,1,15,15)" stroke-linecap="butt">
      <path fill="none" d="M289.6458 71.9731 L226.3776 71.9731 L226.3776 101.9731 L289.6458 101.9731" clip-path="url(#clipPath2)"/>
      <text x="232.3776" font-size="14px" y="92.0556" clip-path="url(#clipPath2)" font-family="'Liberation Sans'" stroke="none" stroke-width="1" xml:space="preserve">http://apims.doe.gov.my</text>
    </g>
    <g stroke-linecap="butt" font-size="20px" transform="matrix(1,0,0,1,15,15)" text-rendering="geometricPrecision" font-family="'Liberation Sans'" shape-rendering="geometricPrecision" font-style="italic" font-weight="bold" stroke-miterlimit="1.45">
      <text x="122.5749" xml:space="preserve" y="94.2338" clip-path="url(#clipPath2)" stroke="none">Source</text>
      <text x="97.0475" xml:space="preserve" y="152.8937" clip-path="url(#clipPath2)" stroke="none">Main path</text>
    </g>
    <g transform="matrix(1,0,0,1,15,15)" fill-opacity="0.902" fill="rgb(255,255,255)" text-rendering="geometricPrecision" shape-rendering="geometricPrecision" stroke="rgb(255,255,255)" stroke-opacity="0.902">
      <rect x="226.3776" width="632.6819" height="30" y="131.9731" clip-path="url(#clipPath2)" stroke="none"/>
    </g>
    <g text-rendering="geometricPrecision" stroke-miterlimit="1.45" stroke-width="7" shape-rendering="geometricPrecision" transform="matrix(1,0,0,1,15,15)" stroke-linecap="butt">
      <path fill="none" d="M289.6458 131.9731 L226.3776 131.9731 L226.3776 161.9731 L289.6458 161.9731" clip-path="url(#clipPath2)"/>
      <text x="232.3776" font-size="14px" y="152.0556" clip-path="url(#clipPath2)" font-family="'Liberation Sans'" stroke="none" stroke-width="1" xml:space="preserve">http://apims.doe.gov.my/v2/hour{quarter}_{year}-{month}-{day}.html</text>
    </g>
    <g stroke-linecap="butt" font-size="20px" transform="matrix(1,0,0,1,15,15)" text-rendering="geometricPrecision" font-family="'Liberation Sans'" shape-rendering="geometricPrecision" font-style="italic" font-weight="bold" stroke-miterlimit="1.45">
      <text x="934.8538" xml:space="preserve" y="64.2338" clip-path="url(#clipPath2)" stroke="none">my_apims</text>
    </g>
    <g stroke-linecap="round" transform="matrix(1,0,0,1,15,15)" stroke-dashoffset="2" fill="rgb(204,204,204)" text-rendering="geometricPrecision" shape-rendering="geometricPrecision" stroke-dasharray="0,4" stroke="rgb(204,204,204)" stroke-miterlimit="1.45">
      <path fill="none" d="M15 30 L15 1485" clip-path="url(#clipPath2)"/>
      <path fill="none" d="M30 1500 L1050 1500" clip-path="url(#clipPath2)"/>
      <path fill="none" d="M1065 1485 L1065 30" clip-path="url(#clipPath2)"/>
      <path fill="none" d="M1050 15 L30 15" clip-path="url(#clipPath2)"/>
    </g>
    <g transform="matrix(1,0,0,1,15,15)" fill-opacity="0.902" fill="rgb(255,255,255)" text-rendering="geometricPrecision" shape-rendering="geometricPrecision" stroke="rgb(255,255,255)" stroke-opacity="0.902">
      <rect x="239.6725" y="549.3919" clip-path="url(#clipPath2)" width="721.8471" rx="4" ry="4" height="674.8534" stroke="none"/>
    </g>
    <g stroke-linecap="round" transform="matrix(1,0,0,1,15,15)" stroke-dashoffset="2" text-rendering="geometricPrecision" shape-rendering="geometricPrecision" stroke-dasharray="0,4" stroke-miterlimit="1.45">
      <rect x="239.6725" y="549.3919" clip-path="url(#clipPath2)" fill="none" width="721.8471" rx="4" ry="4" height="674.8534"/>
    </g>
    <g stroke-linecap="round" transform="matrix(1,0,0,1,15,15)" fill-opacity="0" stroke-dashoffset="2" fill="rgb(0,0,0)" text-rendering="geometricPrecision" shape-rendering="geometricPrecision" stroke-dasharray="0,4" stroke="rgb(0,0,0)" stroke-opacity="0" stroke-miterlimit="1.45">
      <path d="M593.096 1205.2452 L608.096 1205.2452 L608.096 1220.2452 L593.096 1220.2452 Z" stroke="none" clip-path="url(#clipPath2)"/>
    </g>
    <g text-rendering="geometricPrecision" shape-rendering="geometricPrecision" transform="matrix(1,0,0,1,15,15)" stroke-linecap="butt">
      <path fill="none" d="M593.096 1205.2452 L608.096 1205.2452 L608.096 1220.2452 L593.096 1220.2452 Z" clip-path="url(#clipPath2)"/>
      <path fill="none" d="M596.756 1212.7452 L604.436 1212.7452" clip-path="url(#clipPath2)"/>
    </g>
    <g fill="rgb(132,255,140)" text-rendering="geometricPrecision" shape-rendering="geometricPrecision" transform="matrix(1,0,0,1,15,15)" stroke="rgb(132,255,140)">
      <path d="M414.43 601.6712 L494.43 601.6712 L494.43 641.6712 L414.43 641.6712 Z" stroke="none" clip-path="url(#clipPath2)"/>
    </g>
    <g text-rendering="geometricPrecision" stroke-miterlimit="1.45" shape-rendering="geometricPrecision" transform="matrix(1,0,0,1,15,15)" stroke-linecap="butt">
      <path fill="none" d="M414.43 601.6712 L494.43 601.6712 L494.43 641.6712 L414.43 641.6712 Z" clip-path="url(#clipPath2)"/>
    </g>
    <g stroke-linecap="butt" font-size="14px" transform="matrix(1,0,0,1,15,15)" text-rendering="geometricPrecision" font-family="'Liberation Sans'" shape-rendering="geometricPrecision" font-style="italic" font-weight="bold" stroke-miterlimit="1.45">
      <text x="421.7645" xml:space="preserve" y="626.7537" clip-path="url(#clipPath2)" stroke="none">Main path</text>
    </g>
    <g fill="rgb(255,204,0)" text-rendering="geometricPrecision" shape-rendering="geometricPrecision" transform="matrix(1,0,0,1,15,15)" stroke="rgb(255,204,0)">
      <path d="M641.43 570.1712 L785.43 570.1712 L785.43 585.1712 L800.43 585.1712 L800.43 673.1712 L641.43 673.1712 Z" stroke="none" clip-path="url(#clipPath2)"/>
      <path fill="white" d="M785.43 570.1712 L785.43 585.1712 L800.43 585.1712 Z" clip-path="url(#clipPath2)" fill-rule="evenodd" stroke="none"/>
    </g>
    <g text-rendering="geometricPrecision" stroke-miterlimit="1.45" shape-rendering="geometricPrecision" transform="matrix(1,0,0,1,15,15)" stroke-linecap="butt">
      <path fill="none" d="M641.43 570.1712 L785.43 570.1712 L785.43 585.1712 L800.43 585.1712 L800.43 673.1712 L641.43 673.1712 Z" clip-path="url(#clipPath2)"/>
      <path fill="none" d="M785.43 570.1712 L785.43 585.1712 L800.43 585.1712 Z" clip-path="url(#clipPath2)" fill-rule="evenodd"/>
      <text x="698.9222" xml:space="preserve" y="599.2151" clip-path="url(#clipPath2)" font-family="'Liberation Sans'" stroke="none">Quarter:</text>
      <text x="662.0579" xml:space="preserve" y="612.6214" clip-path="url(#clipPath2)" font-family="'Liberation Sans'" stroke="none">from 00:00 to 5:00 = 1</text>
      <text x="662.0579" xml:space="preserve" y="626.0276" clip-path="url(#clipPath2)" font-family="'Liberation Sans'" stroke="none">from 6:00 to 11:00 = 2</text>
      <text x="658.721" xml:space="preserve" y="639.4339" clip-path="url(#clipPath2)" font-family="'Liberation Sans'" stroke="none">from 12:00 to 17:00 = 3</text>
      <text x="658.721" xml:space="preserve" y="652.8401" clip-path="url(#clipPath2)" font-family="'Liberation Sans'" stroke="none">from 18:00 to 23:00 = 4</text>
    </g>
    <g fill="rgb(255,121,112)" text-rendering="geometricPrecision" shape-rendering="geometricPrecision" transform="matrix(1,0,0,1,15,15)" stroke="rgb(255,121,112)">
      <path d="M334.43 696.0233 L574.43 696.0233 L574.43 741.0233 L334.43 741.0233 Z" stroke="none" clip-path="url(#clipPath2)"/>
    </g>
    <g text-rendering="geometricPrecision" stroke-miterlimit="1.45" shape-rendering="geometricPrecision" transform="matrix(1,0,0,1,15,15)" stroke-linecap="butt">
      <path fill="none" d="M334.43 696.0233 L574.43 696.0233 L574.43 741.0233 L334.43 741.0233 Z" clip-path="url(#clipPath2)"/>
      <rect fill="none" x="337.43" width="234" height="39" y="699.0233" clip-path="url(#clipPath2)"/>
      <text x="352.2669" font-size="14px" y="723.6058" clip-path="url(#clipPath2)" font-family="'Liberation Sans'" stroke="none" xml:space="preserve">//*[@id="content"]/div/table/tbody</text>
    </g>
    <g fill="rgb(50,179,255)" text-rendering="geometricPrecision" shape-rendering="geometricPrecision" transform="matrix(1,0,0,1,15,15)" stroke="rgb(50,179,255)">
      <rect x="273.628" y="858.9048" clip-path="url(#clipPath3)" width="80" rx="4" ry="4" height="50" stroke="none"/>
      <rect x="273.628" y="858.9048" clip-path="url(#clipPath4)" fill="rgb(204,204,204)" width="80" rx="4" ry="4" height="50" stroke="none"/>
    </g>
    <g text-rendering="geometricPrecision" stroke-miterlimit="1.45" shape-rendering="geometricPrecision" transform="matrix(1,0,0,1,15,15)" stroke-linecap="butt">
      <rect x="273.628" y="858.9048" clip-path="url(#clipPath2)" fill="none" width="80" rx="4" ry="4" height="50"/>
      <line y2="884.3111" fill="none" x1="273.628" clip-path="url(#clipPath2)" x2="353.628" y1="884.3111"/>
      <text x="287.9435" xml:space="preserve" y="875.9644" clip-path="url(#clipPath2)" font-family="'Liberation Sans'" stroke="none">station_id</text>
      <text x="277.6281" xml:space="preserve" y="901.3707" clip-path="url(#clipPath2)" font-family="'Liberation Sans'" stroke="none">td[2]</text>
    </g>
    <g fill="rgb(50,179,255)" text-rendering="geometricPrecision" shape-rendering="geometricPrecision" transform="matrix(1,0,0,1,15,15)" stroke="rgb(50,179,255)">
      <ellipse rx="50" ry="20" clip-path="url(#clipPath2)" cx="608.9422" cy="883.9048" stroke="none"/>
    </g>
    <g text-rendering="geometricPrecision" stroke-miterlimit="1.45" shape-rendering="geometricPrecision" transform="matrix(1,0,0,1,15,15)" stroke-linecap="butt">
      <ellipse rx="50" fill="none" ry="20" clip-path="url(#clipPath2)" cx="608.9422" cy="883.9048"/>
      <text x="603.9382" xml:space="preserve" y="888.2613" clip-path="url(#clipPath2)" font-family="'Liberation Sans'" stroke="none">td</text>
    </g>
    <g fill="rgb(255,121,112)" text-rendering="geometricPrecision" shape-rendering="geometricPrecision" transform="matrix(1,0,0,1,15,15)" stroke="rgb(255,121,112)">
      <path d="M404.43 816.5496 L504.43 816.5496 L504.43 861.5496 L404.43 861.5496 Z" stroke="none" clip-path="url(#clipPath2)"/>
    </g>
    <g text-rendering="geometricPrecision" stroke-miterlimit="1.45" shape-rendering="geometricPrecision" transform="matrix(1,0,0,1,15,15)" stroke-linecap="butt">
      <path fill="none" d="M404.43 816.5496 L504.43 816.5496 L504.43 861.5496 L404.43 861.5496 Z" clip-path="url(#clipPath2)"/>
      <rect fill="none" x="407.43" width="94" height="39" y="819.5495" clip-path="url(#clipPath2)"/>
      <text x="450.1541" font-size="14px" y="844.1321" clip-path="url(#clipPath2)" font-family="'Liberation Sans'" stroke="none" xml:space="preserve">tr</text>
    </g>
    <g fill="rgb(50,179,255)" text-rendering="geometricPrecision" shape-rendering="geometricPrecision" transform="matrix(1,0,0,1,15,15)" stroke="rgb(50,179,255)">
      <rect x="568.9422" y="955.0365" clip-path="url(#clipPath5)" width="100" rx="4" ry="4" height="50" stroke="none"/>
      <rect x="568.9422" y="955.0365" clip-path="url(#clipPath6)" fill="rgb(204,204,204)" width="100" rx="4" ry="4" height="50" stroke="none"/>
    </g>
    <g text-rendering="geometricPrecision" stroke-miterlimit="1.45" shape-rendering="geometricPrecision" transform="matrix(1,0,0,1,15,15)" stroke-linecap="butt">
      <rect x="568.9422" y="955.0365" clip-path="url(#clipPath2)" fill="none" width="100" rx="4" ry="4" height="50"/>
      <line y2="980.4428" fill="none" x1="568.9422" clip-path="url(#clipPath2)" x2="668.9422" y1="980.4428"/>
      <text x="578.5769" xml:space="preserve" y="972.0961" clip-path="url(#clipPath2)" font-family="'Liberation Sans'" stroke="none">pollutant_value</text>
      <text x="572.9421" xml:space="preserve" y="997.5023" clip-path="url(#clipPath2)" font-family="'Liberation Sans'" stroke="none">font/b</text>
    </g>
    <g fill="rgb(255,204,0)" text-rendering="geometricPrecision" shape-rendering="geometricPrecision" transform="matrix(1,0,0,1,15,15)" stroke="rgb(255,204,0)">
      <path d="M254.6725 1035.0365 L597.9745 1035.0365 L597.9745 1050.0365 L612.9745 1050.0365 L612.9745 1209.2452 L254.6725 1209.2452 Z" stroke="none" clip-path="url(#clipPath2)"/>
      <path fill="white" d="M597.9745 1035.0365 L597.9745 1050.0365 L612.9745 1050.0365 Z" clip-path="url(#clipPath2)" fill-rule="evenodd" stroke="none"/>
    </g>
    <g text-rendering="geometricPrecision" stroke-miterlimit="1.45" shape-rendering="geometricPrecision" transform="matrix(1,0,0,1,15,15)" stroke-linecap="butt">
      <path fill="none" d="M254.6725 1035.0365 L597.9745 1035.0365 L597.9745 1050.0365 L612.9745 1050.0365 L612.9745 1209.2452 L254.6725 1209.2452 Z" clip-path="url(#clipPath2)"/>
      <path fill="none" d="M597.9745 1035.0365 L597.9745 1050.0365 L612.9745 1050.0365 Z" clip-path="url(#clipPath2)" fill-rule="evenodd"/>
      <text x="263.7551" xml:space="preserve" y="1072.8723" clip-path="url(#clipPath2)" font-family="'Liberation Sans'" stroke="none">1) Value is row</text>
      <text x="263.7551" xml:space="preserve" y="1086.2786" clip-path="url(#clipPath2)" font-family="'Liberation Sans'" stroke="none">2) contain only AQI</text>
      <text x="263.7551" xml:space="preserve" y="1099.6848" clip-path="url(#clipPath2)" font-family="'Liberation Sans'" stroke="none">3) </text>
      <text x="263.7551" xml:space="preserve" y="1113.0911" clip-path="url(#clipPath2)" font-family="'Liberation Sans'" stroke="none">* Particulate matter with diameter of less than 10 micron (PM10)</text>
      <text x="263.7551" xml:space="preserve" y="1126.4973" clip-path="url(#clipPath2)" font-family="'Liberation Sans'" stroke="none">a Sulphur Dioxide (SO2)</text>
      <text x="263.7551" xml:space="preserve" y="1139.9036" clip-path="url(#clipPath2)" font-family="'Liberation Sans'" stroke="none">b Nitrogen Dioxide (NO2)</text>
      <text x="263.7551" xml:space="preserve" y="1153.3098" clip-path="url(#clipPath2)" font-family="'Liberation Sans'" stroke="none">c Ozone (O3)</text>
      <text x="263.7551" xml:space="preserve" y="1166.7161" clip-path="url(#clipPath2)" font-family="'Liberation Sans'" stroke="none">d Carbon Monoxide (CO)</text>
      <text x="263.7551" xml:space="preserve" y="1180.1223" clip-path="url(#clipPath2)" font-family="'Liberation Sans'" stroke="none">&amp; More than one pollutant</text>
    </g>
    <g fill="rgb(255,204,0)" text-rendering="geometricPrecision" shape-rendering="geometricPrecision" transform="matrix(1,0,0,1,15,15)" stroke="rgb(255,204,0)">
      <path d="M726.5195 869.9048 L931.5195 869.9048 L931.5195 884.9048 L946.5195 884.9048 L946.5195 897.9048 L726.5195 897.9048 Z" stroke="none" clip-path="url(#clipPath2)"/>
      <path fill="white" d="M931.5195 869.9048 L931.5195 884.9048 L946.5195 884.9048 Z" clip-path="url(#clipPath2)" fill-rule="evenodd" stroke="none"/>
    </g>
    <g text-rendering="geometricPrecision" stroke-miterlimit="1.45" shape-rendering="geometricPrecision" transform="matrix(1,0,0,1,15,15)" stroke-linecap="butt">
      <path fill="none" d="M726.5195 869.9048 L931.5195 869.9048 L931.5195 884.9048 L946.5195 884.9048 L946.5195 897.9048 L726.5195 897.9048 Z" clip-path="url(#clipPath2)"/>
      <path fill="none" d="M931.5195 869.9048 L931.5195 884.9048 L946.5195 884.9048 Z" clip-path="url(#clipPath2)" fill-rule="evenodd"/>
      <text x="744.5332" xml:space="preserve" y="888.2613" clip-path="url(#clipPath2)" font-family="'Liberation Sans'" stroke="none">The last thah not equial to "&amp;nbsp"</text>
    </g>
    <g fill="rgb(255,204,0)" text-rendering="geometricPrecision" shape-rendering="geometricPrecision" transform="matrix(1,0,0,1,15,15)" stroke="rgb(255,204,0)">
      <path d="M764.5195 955.0365 L893.5195 955.0365 L893.5195 970.0365 L908.5195 970.0365 L908.5195 983.0365 L764.5195 983.0365 Z" stroke="none" clip-path="url(#clipPath2)"/>
      <path fill="white" d="M893.5195 955.0365 L893.5195 970.0365 L908.5195 970.0365 Z" clip-path="url(#clipPath2)" fill-rule="evenodd" stroke="none"/>
    </g>
    <g text-rendering="geometricPrecision" stroke-miterlimit="1.45" shape-rendering="geometricPrecision" transform="matrix(1,0,0,1,15,15)" stroke-linecap="butt">
      <path fill="none" d="M764.5195 955.0365 L893.5195 955.0365 L893.5195 970.0365 L908.5195 970.0365 L908.5195 983.0365 L764.5195 983.0365 Z" clip-path="url(#clipPath2)"/>
      <path fill="none" d="M893.5195 955.0365 L893.5195 970.0365 L908.5195 970.0365 Z" clip-path="url(#clipPath2)" fill-rule="evenodd"/>
      <text x="778.8252" xml:space="preserve" y="973.3929" clip-path="url(#clipPath2)" font-family="'Liberation Sans'" stroke="none">could be empty or NA</text>
    </g>
    <g stroke-linecap="butt" font-size="20px" transform="matrix(1,0,0,1,15,15)" text-rendering="geometricPrecision" font-family="'Liberation Sans'" shape-rendering="geometricPrecision" font-style="italic" font-weight="bold" stroke-miterlimit="1.45">
      <text x="103.7272" xml:space="preserve" y="211.5536" clip-path="url(#clipPath2)" stroke="none">Updating</text>
    </g>
    <g transform="matrix(1,0,0,1,15,15)" fill-opacity="0.902" fill="rgb(255,255,255)" text-rendering="geometricPrecision" shape-rendering="geometricPrecision" stroke="rgb(255,255,255)" stroke-opacity="0.902">
      <rect x="226.3776" width="124" height="30" y="189.2929" clip-path="url(#clipPath2)" stroke="none"/>
    </g>
    <g text-rendering="geometricPrecision" stroke-miterlimit="1.45" stroke-width="7" shape-rendering="geometricPrecision" transform="matrix(1,0,0,1,15,15)" stroke-linecap="butt">
      <path fill="none" d="M238.7776 189.2928 L226.3776 189.2928 L226.3776 219.2928 L238.7776 219.2928" clip-path="url(#clipPath2)"/>
      <text x="232.3776" font-size="14px" y="209.3754" clip-path="url(#clipPath2)" font-family="'Liberation Sans'" stroke="none" stroke-width="1" xml:space="preserve">hourly</text>
    </g>
    <g stroke-linecap="butt" font-size="20px" transform="matrix(1,0,0,1,15,15)" text-rendering="geometricPrecision" font-family="'Liberation Sans'" shape-rendering="geometricPrecision" font-style="italic" font-weight="bold" stroke-miterlimit="1.45">
      <text x="450.3055" xml:space="preserve" y="211.5536" clip-path="url(#clipPath2)" stroke="none">at</text>
    </g>
    <g transform="matrix(1,0,0,1,15,15)" fill-opacity="0.902" fill="rgb(255,255,255)" text-rendering="geometricPrecision" shape-rendering="geometricPrecision" stroke="rgb(255,255,255)" stroke-opacity="0.902">
      <rect x="504.0888" width="124" height="30" y="189.2929" clip-path="url(#clipPath2)" stroke="none"/>
    </g>
    <g text-rendering="geometricPrecision" stroke-miterlimit="1.45" stroke-width="7" shape-rendering="geometricPrecision" transform="matrix(1,0,0,1,15,15)" stroke-linecap="butt">
      <path fill="none" d="M516.4888 189.2928 L504.0887 189.2928 L504.0887 219.2928 L516.4888 219.2928" clip-path="url(#clipPath2)"/>
      <text x="510.0887" font-size="14px" y="209.3754" clip-path="url(#clipPath2)" font-family="'Liberation Sans'" stroke="none" stroke-width="1" xml:space="preserve">-</text>
    </g>
    <g stroke-linecap="butt" font-size="20px" transform="matrix(1,0,0,1,15,15)" text-rendering="geometricPrecision" font-family="'Liberation Sans'" shape-rendering="geometricPrecision" font-style="italic" font-weight="bold" stroke-miterlimit="1.45">
      <text x="127.0378" xml:space="preserve" y="271.5536" clip-path="url(#clipPath2)" stroke="none">NOTE*</text>
    </g>
    <g fill="silver" text-rendering="geometricPrecision" shape-rendering="geometricPrecision" transform="matrix(1,0,0,1,15,15)" stroke="silver">
      <rect x="226.3776" width="812.3082" height="30" y="249.2929" clip-path="url(#clipPath2)" stroke="none"/>
    </g>
    <g text-rendering="geometricPrecision" stroke-miterlimit="1.45" stroke-width="7" shape-rendering="geometricPrecision" transform="matrix(1,0,0,1,15,15)" stroke-linecap="butt">
      <path fill="none" d="M307.6084 249.2928 L226.3776 249.2928 L226.3776 279.2928 L307.6084 279.2928" clip-path="url(#clipPath2)"/>
      <text x="232.3776" font-size="14px" y="269.3754" clip-path="url(#clipPath2)" font-family="'Liberation Sans'" stroke="none" stroke-width="1" xml:space="preserve">dynamic url for current date(they local time)</text>
    </g>
    <g stroke-linecap="round" transform="matrix(1,0,0,1,15,15)" stroke-dashoffset="2" text-rendering="geometricPrecision" shape-rendering="geometricPrecision" stroke-dasharray="0,8" stroke-width="2" stroke-miterlimit="1.45">
      <path fill="none" d="M641.3941 621.6712 L494.43 621.6712" clip-path="url(#clipPath2)"/>
    </g>
    <g text-rendering="geometricPrecision" stroke-miterlimit="1.45" shape-rendering="geometricPrecision" transform="matrix(1,0,0,1,15,15)" stroke-linecap="butt">
      <path fill="none" d="M454.43 641.6712 L454.43 695.9967" clip-path="url(#clipPath2)"/>
      <line transform="matrix(0,-1,1,0,454.43,641.6712)" clip-path="url(#clipPath7)" fill="none" x1="-10" x2="-10" y1="-8" y2="8"/>
    </g>
    <g stroke-linecap="butt" transform="matrix(1,0,0,1,15,15)" fill="white" text-rendering="geometricPrecision" shape-rendering="geometricPrecision" stroke="white" stroke-miterlimit="1.45">
      <rect x="439.7445" width="29.3711" height="17.9688" y="659.8629" clip-path="url(#clipPath2)" stroke="none"/>
      <text x="441.7444" y="673.0015" clip-path="url(#clipPath2)" fill="black" font-family="sans-serif" stroke="none" xml:space="preserve">[-1:]</text>
      <path fill="none" d="M454.43 750.0233 L454.43 816.5496" clip-path="url(#clipPath2)" stroke="black"/>
      <line transform="matrix(0,-1,1,0,454.43,741.0233)" clip-path="url(#clipPath8)" fill="none" x1="-10" x2="2" y1="0" y2="8" stroke="black"/>
      <line transform="matrix(0,-1,1,0,454.43,741.0233)" clip-path="url(#clipPath8)" fill="none" x1="-10" x2="2" y1="0" y2="0" stroke="black"/>
      <line transform="matrix(0,-1,1,0,454.43,741.0233)" clip-path="url(#clipPath8)" fill="none" x1="-10" x2="2" y1="0" y2="-8" stroke="black"/>
    </g>
    <g stroke-linecap="butt" transform="matrix(1,0,0,1,15,15)" fill="white" text-rendering="geometricPrecision" shape-rendering="geometricPrecision" stroke="white" stroke-miterlimit="1.45">
      <rect x="439.7445" width="29.3711" height="17.9688" y="769.802" clip-path="url(#clipPath2)" stroke="none"/>
      <text x="441.7444" y="782.9407" clip-path="url(#clipPath2)" fill="black" font-family="sans-serif" stroke="none" xml:space="preserve">[-1:]</text>
      <path fill="none" d="M404.4047 860.2272 L352.6221 860.2272" clip-path="url(#clipPath2)" stroke="black"/>
      <line transform="matrix(1,0,0,1,404.4047,860.2272)" clip-path="url(#clipPath9)" fill="none" x1="-10" x2="-10" y1="-8" y2="8" stroke="black"/>
    </g>
    <g text-rendering="geometricPrecision" stroke-miterlimit="1.45" shape-rendering="geometricPrecision" transform="matrix(1,0,0,1,15,15)" stroke-linecap="butt">
      <path fill="none" d="M454.43 870.5932 L454.43 883.9048 L558.9421 883.9048" clip-path="url(#clipPath2)"/>
      <line transform="matrix(0,-1,1,0,454.43,861.5932)" clip-path="url(#clipPath8)" fill="none" x1="-10" x2="2" y1="0" y2="8"/>
      <line transform="matrix(0,-1,1,0,454.43,861.5932)" clip-path="url(#clipPath8)" fill="none" x1="-10" x2="2" y1="0" y2="0"/>
      <line transform="matrix(0,-1,1,0,454.43,861.5932)" clip-path="url(#clipPath8)" fill="none" x1="-10" x2="2" y1="0" y2="-8"/>
    </g>
    <g stroke-linecap="butt" transform="matrix(1,0,0,1,15,15)" fill="white" text-rendering="geometricPrecision" shape-rendering="geometricPrecision" stroke="white" stroke-miterlimit="1.45">
      <rect x="487.438" width="29.3711" height="17.9688" y="874.9205" clip-path="url(#clipPath2)" stroke="none"/>
      <text x="489.438" y="888.0591" clip-path="url(#clipPath2)" fill="black" font-family="sans-serif" stroke="none" xml:space="preserve">[-2:]</text>
      <path fill="none" d="M613.9421 903.9048 L613.9421 954.9866" clip-path="url(#clipPath2)" stroke="black"/>
      <line transform="matrix(0,-1,1,0,613.9421,903.9048)" clip-path="url(#clipPath10)" fill="none" x1="-10" x2="-10" y1="-8" y2="8" stroke="black"/>
    </g>
    <g stroke-linecap="round" transform="matrix(1,0,0,1,15,15)" stroke-dashoffset="2" text-rendering="geometricPrecision" shape-rendering="geometricPrecision" stroke-dasharray="0,8" stroke-width="2" stroke-miterlimit="1.45">
      <path fill="none" d="M590.9584 1035.0072 L590.9584 1005.0365" clip-path="url(#clipPath2)"/>
    </g>
    <g stroke-linecap="round" transform="matrix(1,0,0,1,15,15)" stroke-dashoffset="2" text-rendering="geometricPrecision" shape-rendering="geometricPrecision" stroke-dasharray="0,8" stroke-width="2" stroke-miterlimit="1.45">
      <path fill="none" d="M726.4805 883.9048 L721.5 883.9048 L719.321 884.5298 L717.7646 886.4048 L716.5195 893.9048 L716.5195 970.0365 L715.8945 974.4115 L714.0195 977.5365 L710.8945 979.4115 L706.5195 980.0365 L668.9421 980.0365" clip-path="url(#clipPath2)"/>
    </g>
    <g stroke-linecap="round" transform="matrix(1,0,0,1,15,15)" stroke-dashoffset="2" text-rendering="geometricPrecision" shape-rendering="geometricPrecision" stroke-dasharray="0,8" stroke-width="2" stroke-miterlimit="1.45">
      <path fill="none" d="M836.5195 983.0677 L836.5195 1005.0365 L835.8945 1009.4115 L834.0195 1012.5365 L830.8945 1014.4115 L826.5195 1015.0365 L628.9421 1015.0365 L621.4421 1013.7865 L619.5671 1012.224 L618.9421 1010.0365 L618.9421 1005.0365" clip-path="url(#clipPath2)"/>
    </g>
  </g>
</svg>
